<svg width="295" height="413" viewBox="0 0 295 413" fill="none" xmlns="http://www.w3.org/2000/svg">
<path d="M277.425 0C287.102 3.95796e-05 294.946 7.84462 294.946 17.5215V203.837C282.689 203.837 272.753 213.774 272.753 226.031C272.753 238.288 282.689 248.224 294.946 248.225V395.403C294.946 405.08 287.102 412.925 277.425 412.925H17.5215C7.8448 412.925 0.000223381 405.08 0 395.403V251.149C0.00117369 251.149 0.00273252 251.15 0.00390625 251.15C12.2611 251.15 22.1973 241.213 22.1973 228.956C22.1971 216.699 12.261 206.763 0.00390625 206.763C0.00273254 206.763 0.00117366 206.763 0 206.763V17.5215C0 7.84465 7.84467 8.99864e-05 17.5215 0H277.425Z" fill="#F6F1E8"/>
</svg>
